<svg xmlns="http://www.w3.org/2000/svg" xmlns:xlink="http://www.w3.org/1999/xlink" width="800" zoomAndPan="magnify" viewBox="0 0 600 149.999998" height="200" preserveAspectRatio="xMidYMid meet" version="1.0"><defs><g/></defs><g fill="#166534" fill-opacity="1"><g transform="translate(74.854593, 92.249997)"><g><path d="M 2.609375 -47.5625 L 41.78125 -47.5625 C 41.96875 -47.550781 42.0625 -47.46875 42.0625 -47.3125 L 42.0625 -40.34375 C 42.0625 -40.175781 41.96875 -40.09375 41.78125 -40.09375 L 32.171875 -40.09375 L 32.171875 -7.484375 L 41.78125 -7.484375 C 41.96875 -7.460938 42.0625 -7.378906 42.0625 -7.234375 L 42.0625 -0.25 C 42.0625 -0.0820312 41.96875 0 41.78125 0 L 2.609375 0 C 2.441406 0 2.359375 -0.0820312 2.359375 -0.25 L 2.359375 -7.234375 C 2.378906 -7.398438 2.460938 -7.484375 2.609375 -7.484375 L 12.515625 -7.484375 L 12.515625 -40.09375 L 2.609375 -40.09375 C 2.441406 -40.09375 2.359375 -40.175781 2.359375 -40.34375 L 2.359375 -47.3125 C 2.378906 -47.476562 2.460938 -47.5625 2.609375 -47.5625 Z M 2.609375 -47.5625 "/></g></g></g><g fill="#166534" fill-opacity="1"><g transform="translate(119.219717, 92.249997)"><g><path d="M 2.53125 -47.5625 L 21.625 -47.5625 C 21.789062 -47.550781 21.875 -47.46875 21.875 -47.3125 L 21.875 -24.1875 L 31.890625 -24.1875 C 32.054688 -24.144531 32.140625 -24.050781 32.140625 -23.90625 L 32.140625 -7.625 L 39.109375 -7.625 L 39.109375 -23.90625 C 39.128906 -24.09375 39.210938 -24.1875 39.359375 -24.1875 L 49.375 -24.1875 L 49.375 -47.3125 C 49.414062 -47.476562 49.507812 -47.5625 49.65625 -47.5625 L 68.71875 -47.5625 C 68.882812 -47.550781 68.96875 -47.46875 68.96875 -47.3125 L 68.96875 -24.4375 C 68.96875 -24.269531 68.882812 -24.1875 68.71875 -24.1875 L 59.640625 -24.1875 L 59.640625 -7.75 C 59.640625 -7.582031 59.554688 -7.5 59.390625 -7.5 L 50.15625 -7.5 L 50.15625 -0.25 C 50.15625 -0.0820312 50.070312 0 49.90625 0 L 21.21875 0 C 21.050781 0 20.96875 -0.0820312 20.96875 -0.25 L 20.96875 -7.5 L 11.875 -7.5 C 11.707031 -7.5 11.625 -7.582031 11.625 -7.75 L 11.625 -24.1875 L 2.53125 -24.1875 C 2.363281 -24.1875 2.28125 -24.269531 2.28125 -24.4375 L 2.28125 -47.3125 C 2.300781 -47.476562 2.382812 -47.5625 2.53125 -47.5625 Z M 2.53125 -47.5625 "/></g></g></g><g fill="#166534" fill-opacity="1"><g transform="translate(190.687597, 92.249997)"><g><path d="M 1.921875 -47.5625 L 58.6875 -47.5625 C 58.875 -47.550781 58.96875 -47.46875 58.96875 -47.3125 L 58.96875 -34.8125 C 58.96875 -34.644531 58.875 -34.5625 58.6875 -34.5625 L 51.703125 -34.5625 C 51.535156 -34.5625 51.453125 -34.644531 51.453125 -34.8125 L 51.453125 -40.09375 L 30.78125 -40.09375 L 30.78125 -31.53125 L 46.703125 -31.53125 C 46.890625 -31.507812 46.984375 -31.425781 46.984375 -31.28125 L 46.984375 -18.765625 C 46.984375 -18.597656 46.890625 -18.515625 46.703125 -18.515625 L 39.734375 -18.515625 C 39.566406 -18.515625 39.484375 -18.597656 39.484375 -18.765625 L 39.484375 -24.046875 L 30.78125 -24.046875 L 30.78125 -7.484375 L 57.625 -7.484375 L 57.625 -12.765625 C 57.664062 -12.929688 57.757812 -13.015625 57.90625 -13.015625 L 64.890625 -13.015625 C 65.078125 -12.992188 65.171875 -12.910156 65.171875 -12.765625 L 65.171875 -0.25 C 65.171875 -0.0820312 65.078125 0 64.890625 0 L 1.921875 0 C 1.753906 0 1.671875 -0.0820312 1.671875 -0.25 L 1.671875 -7.234375 C 1.691406 -7.398438 1.773438 -7.484375 1.921875 -7.484375 L 11.140625 -7.484375 L 11.140625 -40.09375 L 1.921875 -40.09375 C 1.753906 -40.09375 1.671875 -40.175781 1.671875 -40.34375 L 1.671875 -47.3125 C 1.691406 -47.476562 1.773438 -47.5625 1.921875 -47.5625 Z M 1.921875 -47.5625 "/></g></g></g><g fill="#166534" fill-opacity="1"><g transform="translate(257.735643, 92.249997)"><g><path d="M 2.421875 -47.5625 L 68.5 -47.5625 C 68.664062 -47.550781 68.75 -47.46875 68.75 -47.3125 L 68.75 -23.515625 C 68.75 -23.347656 68.664062 -23.265625 68.5 -23.265625 L 30.390625 -23.265625 L 30.390625 -20.875 L 59.265625 -20.875 C 59.429688 -20.851562 59.515625 -20.769531 59.515625 -20.625 L 59.515625 -13.796875 L 68.5 -13.796875 C 68.664062 -13.773438 68.75 -13.691406 68.75 -13.546875 L 68.75 -0.25 C 68.75 -0.0820312 68.664062 0 68.5 0 L 48.84375 0 C 48.675781 0 48.59375 -0.0820312 48.59375 -0.25 L 48.59375 -13.265625 L 30.390625 -13.265625 L 30.390625 -0.25 C 30.390625 -0.0820312 30.304688 0 30.140625 0 L 11.015625 0 C 10.828125 0 10.734375 -0.0820312 10.734375 -0.25 L 10.734375 -40.09375 L 2.421875 -40.09375 C 2.253906 -40.09375 2.171875 -40.175781 2.171875 -40.34375 L 2.171875 -47.3125 C 2.191406 -47.476562 2.273438 -47.5625 2.421875 -47.5625 Z M 30.390625 -40.234375 L 30.390625 -31 L 48.59375 -31 L 48.59375 -40.234375 Z M 30.390625 -40.234375 "/></g></g></g><g fill="#166534" fill-opacity="1"><g transform="translate(329.509286, 92.249997)"><g><path d="M 3.3125 -47.5625 L 60 -47.5625 C 60.164062 -47.550781 60.25 -47.46875 60.25 -47.3125 L 60.25 -34.8125 C 60.25 -34.644531 60.164062 -34.5625 60 -34.5625 L 41.140625 -34.5625 C 40.960938 -34.5625 40.875 -34.644531 40.875 -34.8125 L 40.875 -40.09375 L 22.6875 -40.09375 L 22.6875 -31.28125 L 60 -31.28125 C 60.164062 -31.257812 60.25 -31.175781 60.25 -31.03125 L 60.25 -0.25 C 60.25 -0.0820312 60.164062 0 60 0 L 3.3125 0 C 3.144531 0 3.0625 -0.0820312 3.0625 -0.25 L 3.0625 -12.625 C 3.082031 -12.8125 3.164062 -12.90625 3.3125 -12.90625 L 12.015625 -12.90625 C 12.191406 -12.863281 12.28125 -12.769531 12.28125 -12.625 L 12.28125 -6.8125 L 40.625 -6.8125 L 40.625 -23.796875 L 3.3125 -23.796875 C 3.144531 -23.796875 3.0625 -23.867188 3.0625 -24.015625 L 3.0625 -47.3125 C 3.082031 -47.476562 3.164062 -47.5625 3.3125 -47.5625 Z M 3.3125 -47.5625 "/></g></g></g><g fill="#166534" fill-opacity="1"><g transform="translate(392.804654, 92.249997)"><g><path d="M 1.921875 -47.5625 L 58.6875 -47.5625 C 58.875 -47.550781 58.96875 -47.46875 58.96875 -47.3125 L 58.96875 -34.8125 C 58.96875 -34.644531 58.875 -34.5625 58.6875 -34.5625 L 51.703125 -34.5625 C 51.535156 -34.5625 51.453125 -34.644531 51.453125 -34.8125 L 51.453125 -40.09375 L 30.78125 -40.09375 L 30.78125 -31.53125 L 46.703125 -31.53125 C 46.890625 -31.507812 46.984375 -31.425781 46.984375 -31.28125 L 46.984375 -18.765625 C 46.984375 -18.597656 46.890625 -18.515625 46.703125 -18.515625 L 39.734375 -18.515625 C 39.566406 -18.515625 39.484375 -18.597656 39.484375 -18.765625 L 39.484375 -24.046875 L 30.78125 -24.046875 L 30.78125 -7.484375 L 57.625 -7.484375 L 57.625 -12.765625 C 57.664062 -12.929688 57.757812 -13.015625 57.90625 -13.015625 L 64.890625 -13.015625 C 65.078125 -12.992188 65.171875 -12.910156 65.171875 -12.765625 L 65.171875 -0.25 C 65.171875 -0.0820312 65.078125 0 64.890625 0 L 1.921875 0 C 1.753906 0 1.671875 -0.0820312 1.671875 -0.25 L 1.671875 -7.234375 C 1.691406 -7.398438 1.773438 -7.484375 1.921875 -7.484375 L 11.140625 -7.484375 L 11.140625 -40.09375 L 1.921875 -40.09375 C 1.753906 -40.09375 1.671875 -40.175781 1.671875 -40.34375 L 1.671875 -47.3125 C 1.691406 -47.476562 1.773438 -47.5625 1.921875 -47.5625 Z M 1.921875 -47.5625 "/></g></g></g><g fill="#166534" fill-opacity="1"><g transform="translate(459.852677, 92.249997)"><g><path d="M 2.953125 -47.5625 L 22.078125 -47.5625 C 22.265625 -47.550781 22.359375 -47.460938 22.359375 -47.296875 L 22.359375 -7.5 L 55.375 -7.5 L 55.375 -12.765625 C 55.394531 -12.929688 55.476562 -13.015625 55.625 -13.015625 L 62.640625 -13.015625 C 62.828125 -12.992188 62.921875 -12.910156 62.921875 -12.765625 L 62.921875 -0.28125 C 62.921875 -0.09375 62.828125 0 62.640625 0 L 2.953125 0 C 2.765625 0 2.671875 -0.09375 2.671875 -0.28125 L 2.671875 -47.296875 C 2.691406 -47.472656 2.785156 -47.5625 2.953125 -47.5625 Z M 2.953125 -47.5625 "/></g></g></g></svg>